<svg width="20" height="22" viewBox="0 0 20 22" fill="none" xmlns="http://www.w3.org/2000/svg">
<path d="M18.9038 15.2937L17.4371 14.4478L18.6167 14.0144C18.7936 13.9537 18.942 13.8301 19.0338 13.6671C19.1255 13.5041 19.1541 13.3131 19.1143 13.1303C19.0889 13.0309 19.0429 12.9379 18.9794 12.8573C18.9158 12.7767 18.836 12.7104 18.7452 12.6626C18.6543 12.6148 18.5545 12.5866 18.4521 12.5798C18.3497 12.573 18.247 12.5878 18.1507 12.6232L15.7849 13.4933L13.9274 12.4205L14.5467 11.3729C14.6134 11.26 14.6486 11.1312 14.6486 11C14.6486 10.8688 14.6134 10.7401 14.5467 10.6271L13.9278 9.57954L15.7849 8.50667L18.1507 9.37677C18.2516 9.414 18.3596 9.42854 18.4669 9.41935C18.5741 9.41017 18.678 9.37748 18.7712 9.32362C18.8644 9.26976 18.9446 9.19605 19.0061 9.10771C19.0676 9.01937 19.1089 8.91857 19.1271 8.81247C19.1521 8.63793 19.1155 8.46012 19.0235 8.30967C18.9316 8.15922 18.79 8.04554 18.6233 7.98821L17.4382 7.55334L18.9049 6.70597C19.0684 6.61628 19.1933 6.46955 19.2556 6.29375C19.318 6.11794 19.3135 5.92534 19.243 5.75264C19.2011 5.65881 19.14 5.57482 19.0636 5.50612C18.9872 5.43742 18.8972 5.38554 18.7995 5.35384C18.7018 5.32213 18.5985 5.31132 18.4963 5.3221C18.3941 5.33288 18.2953 5.36501 18.2064 5.41641L16.7031 6.28357L16.9168 5.04717C16.9515 4.87155 16.9234 4.68931 16.8374 4.53229C16.7515 4.37526 16.6131 4.25343 16.4464 4.18807C16.3458 4.15246 16.2386 4.13925 16.1323 4.14936C16.026 4.15947 15.9233 4.19266 15.8311 4.24661C15.739 4.30055 15.6598 4.37396 15.599 4.4617C15.5382 4.54943 15.4973 4.64938 15.4791 4.75457L15.0498 7.23837L13.1798 8.31821L12.5949 7.32821C12.5304 7.21843 12.4383 7.12737 12.3279 7.06398C12.2174 7.00058 12.0923 6.96705 11.965 6.96667H10.7334V4.74357L12.64 3.15517C12.7796 3.04379 12.8756 2.88686 12.9112 2.71185C12.9468 2.53683 12.9197 2.35487 12.8347 2.19781C12.7811 2.10554 12.708 2.0261 12.6205 1.96501C12.533 1.90393 12.4332 1.86268 12.3281 1.84414C12.223 1.8256 12.1151 1.83022 12.012 1.85767C11.9089 1.88513 11.813 1.93476 11.7311 2.00311L10.7334 2.83434V1.13924C10.7373 0.960728 10.6784 0.78651 10.5668 0.647081C10.4553 0.507652 10.2982 0.411896 10.1232 0.376573C10.018 0.358635 9.91006 0.363898 9.80705 0.391995C9.70404 0.420091 9.60841 0.470343 9.52684 0.539239C9.44526 0.608135 9.37972 0.694013 9.33479 0.790872C9.28985 0.88773 9.26661 0.993233 9.26669 1.10001V2.83434L8.29942 2.02767C8.16478 1.91051 7.99323 1.84444 7.81479 1.84102C7.63634 1.8376 7.46238 1.89706 7.32336 2.00897C7.24219 2.07837 7.17715 2.16466 7.1328 2.2618C7.08845 2.35895 7.06585 2.46461 7.06659 2.5714C7.06732 2.67818 7.09137 2.78352 7.13705 2.88005C7.18273 2.97658 7.24894 3.06196 7.33106 3.13024L9.26706 4.74357V6.96667H8.03506C7.90756 6.96668 7.78227 6.99993 7.67155 7.06314C7.56082 7.12634 7.46849 7.21733 7.40366 7.32711L6.81882 8.31711L4.94882 7.23727L4.52679 4.79491C4.49886 4.6101 4.40404 4.44199 4.26034 4.32249C4.11664 4.20298 3.93405 4.14041 3.74726 4.14664C3.64478 4.1536 3.54491 4.18202 3.45412 4.23004C3.36333 4.27806 3.28363 4.34462 3.2202 4.4254C3.15677 4.50619 3.11102 4.59939 3.08591 4.69899C3.06079 4.79858 3.05688 4.90234 3.07442 5.00354L3.29442 6.28247L1.82776 5.43474C1.67522 5.34197 1.4949 5.30583 1.31839 5.33264C1.14188 5.35946 0.980433 5.44752 0.862325 5.58141C0.794188 5.66357 0.744809 5.75962 0.717638 5.86285C0.690466 5.96608 0.686158 6.07399 0.705013 6.17905C0.723868 6.28412 0.765432 6.3838 0.826802 6.47114C0.888172 6.55847 0.967868 6.63136 1.06033 6.68471L2.56366 7.55187L1.37786 7.98784C1.21099 8.04517 1.06932 8.15887 0.97723 8.30938C0.885144 8.4599 0.848401 8.6378 0.873325 8.81247C0.891494 8.91857 0.932797 9.01937 0.994301 9.10771C1.0558 9.19605 1.136 9.26976 1.2292 9.32362C1.3224 9.37748 1.42631 9.41017 1.53356 9.41935C1.6408 9.42854 1.74876 9.414 1.84976 9.37677L4.21512 8.50667L6.07266 9.57954L5.45336 10.6271C5.38665 10.7401 5.35147 10.8688 5.35147 11C5.35147 11.1312 5.38665 11.26 5.45336 11.3729L6.07229 12.4205L4.21512 13.4933L1.84976 12.6232C1.75343 12.5878 1.65072 12.5729 1.54829 12.5796C1.44585 12.5864 1.34597 12.6145 1.25511 12.6623C1.16424 12.71 1.08442 12.7764 1.0208 12.8569C0.957182 12.9375 0.911187 13.0305 0.885792 13.13C0.845885 13.3128 0.874519 13.5038 0.966252 13.6669C1.05799 13.8299 1.20642 13.9536 1.38336 14.0144L2.56182 14.4467L1.09846 15.29C0.932417 15.3809 0.806047 15.5302 0.743854 15.709C0.681662 15.8878 0.688078 16.0833 0.761858 16.2576C0.804865 16.3497 0.866552 16.4319 0.943002 16.4989C1.01945 16.5659 1.109 16.6163 1.20595 16.6468C1.3029 16.6774 1.40515 16.6874 1.5062 16.6764C1.60724 16.6653 1.70489 16.6333 1.79292 16.5825L3.29626 15.7153L3.08176 16.9569C3.05973 17.0643 3.06154 17.1752 3.08705 17.2818C3.11256 17.3885 3.16116 17.4882 3.22941 17.574C3.29766 17.6598 3.3839 17.7296 3.48206 17.7784C3.58021 17.8273 3.68789 17.854 3.79749 17.8567C3.97018 17.8564 4.13725 17.7952 4.26925 17.6839C4.40126 17.5725 4.48973 17.4182 4.51909 17.248L4.94846 14.7642L6.81846 13.6844L7.40329 14.6744C7.46833 14.7839 7.5608 14.8747 7.67159 14.9376C7.78237 15.0006 7.90764 15.0335 8.03506 15.0333H9.26669V17.2564L7.36002 18.8467C7.22047 18.9579 7.12455 19.1148 7.08909 19.2897C7.05362 19.4646 7.08087 19.6465 7.16606 19.8033C7.21968 19.8956 7.2928 19.975 7.3803 20.0361C7.4678 20.0972 7.56758 20.1384 7.67267 20.157C7.77776 20.1755 7.88563 20.1709 7.98876 20.1434C8.09188 20.116 8.18776 20.0664 8.26972 19.998L9.26669 19.1657V20.8608C9.26273 21.0393 9.32168 21.2135 9.43322 21.3529C9.54477 21.4924 9.70179 21.5881 9.87682 21.6234C9.98208 21.6414 10.09 21.6361 10.193 21.608C10.296 21.5799 10.3916 21.5297 10.4732 21.4608C10.5548 21.3919 10.6203 21.306 10.6653 21.2091C10.7102 21.1123 10.7334 21.0068 10.7334 20.9V19.1657L11.7307 19.9969C11.8144 20.0667 11.9126 20.117 12.0181 20.1442C12.1237 20.1713 12.234 20.1745 12.3409 20.1537C12.4479 20.1328 12.5489 20.0884 12.6365 20.0236C12.7242 19.9588 12.7962 19.8753 12.8476 19.7791C12.9255 19.6241 12.9477 19.4471 12.9106 19.2777C12.8735 19.1082 12.7793 18.9567 12.6437 18.8485L10.7334 17.2564V15.0333H11.965C12.0925 15.0333 12.2178 15.0001 12.3285 14.9369C12.4392 14.8737 12.5316 14.7827 12.5964 14.6729L13.1812 13.6829L15.0512 14.7627L15.4806 17.2465C15.5099 17.4167 15.5984 17.5711 15.7304 17.6824C15.8624 17.7938 16.0295 17.855 16.2022 17.8552C16.312 17.8518 16.4198 17.8245 16.518 17.7751C16.6162 17.7257 16.7024 17.6554 16.7705 17.5692C16.8387 17.483 16.8872 17.383 16.9127 17.276C16.9381 17.1691 16.9399 17.058 16.9179 16.9503L16.7045 15.7175L18.2079 16.5847C18.2959 16.6356 18.3935 16.6676 18.4946 16.6788C18.5957 16.6899 18.698 16.6799 18.795 16.6494C18.8919 16.6188 18.9815 16.5685 19.058 16.5015C19.1345 16.4345 19.1962 16.3523 19.2393 16.2602C19.3131 16.0862 19.3196 15.8909 19.2576 15.7123C19.1957 15.5338 19.0695 15.3846 18.9038 15.2937ZM12.288 11.5658L11.628 12.6658C11.53 12.8283 11.3917 12.9629 11.2265 13.0565C11.0613 13.1501 10.8748 13.1995 10.685 13.2H9.31509C9.12524 13.1995 8.93872 13.1501 8.77354 13.0565C8.60835 12.9629 8.47007 12.8283 8.37202 12.6658L7.71202 11.5658C7.60909 11.395 7.5547 11.1994 7.5547 11C7.5547 10.8006 7.60909 10.605 7.71202 10.4342L8.37202 9.33424C8.47007 9.17167 8.60835 9.0371 8.77354 8.94352C8.93872 8.84995 9.12524 8.80052 9.31509 8.80001H10.685C10.8748 8.80052 11.0613 8.84995 11.2265 8.94352C11.3917 9.0371 11.53 9.17167 11.628 9.33424L12.288 10.4342C12.391 10.605 12.4453 10.8006 12.4453 11C12.4453 11.1994 12.391 11.395 12.288 11.5658Z" fill="#2194FF"/>
</svg>
